<svg width="27" height="39" viewBox="0 0 27 39" fill="none" xmlns="http://www.w3.org/2000/svg">
<path d="M11.8388 0C13.773 0 15.4731 0.388756 16.9393 1.16627C18.4055 1.91268 19.5598 2.89234 20.4021 4.10526V0.419857H27V26.451C27 28.8457 26.5165 30.9761 25.5494 32.8421C24.5823 34.7392 23.1317 36.2321 21.1976 37.3206C19.2634 38.4402 16.9237 39 14.1785 39C10.4974 39 7.4714 38.1447 5.10052 36.4342C2.76083 34.7237 1.43501 32.3911 1.12305 29.4366H7.62738C7.97054 30.6184 8.70364 31.5514 9.82669 32.2356C10.9809 32.951 12.3692 33.3086 13.9913 33.3086C15.8943 33.3086 17.4385 32.7333 18.6239 31.5825C19.8094 30.4629 20.4021 28.7524 20.4021 26.451V22.439C19.5598 23.6519 18.3899 24.6627 16.8925 25.4713C15.4263 26.2799 13.7418 26.6842 11.8388 26.6842C9.65511 26.6842 7.65858 26.1244 5.84922 25.0048C4.03986 23.8852 2.60485 22.3146 1.54419 20.2931C0.514731 18.2404 0 15.8923 0 13.2488C0 10.6364 0.514731 8.31938 1.54419 6.29785C2.60485 4.27632 4.02426 2.72129 5.80243 1.63278C7.61179 0.544259 9.62392 0 11.8388 0ZM20.4021 13.3421C20.4021 11.756 20.0901 10.4031 19.4662 9.28349C18.8423 8.13277 18 7.26196 16.9393 6.67105C15.8787 6.04904 14.74 5.73804 13.5234 5.73804C12.3068 5.73804 11.1837 6.03349 10.1542 6.6244C9.12478 7.21531 8.2825 8.08612 7.62738 9.23684C7.00347 10.3565 6.69151 11.6938 6.69151 13.2488C6.69151 14.8038 7.00347 16.1722 7.62738 17.3541C8.2825 18.5048 9.12478 19.3911 10.1542 20.0132C11.2149 20.6352 12.338 20.9462 13.5234 20.9462C14.74 20.9462 15.8787 20.6507 16.9393 20.0598C18 19.4378 18.8423 18.567 19.4662 17.4474C20.0901 16.2966 20.4021 14.9282 20.4021 13.3421Z" fill="#00BC62"/>
<path d="M0 13.2488C0 10.6364 0.514731 8.31938 1.54419 6.29785C2.60485 4.27632 4.02426 2.72129 5.80243 1.63278C7.61179 0.544259 9.62392 0 11.8388 0C13.773 0 15.4575 0.388756 16.8925 1.16627C18.3588 1.94378 19.5286 2.92344 20.4021 4.10526V0.419857H27V26.2644H20.4021V22.4856C19.5598 23.6986 18.3899 24.7093 16.8925 25.5179C15.4263 26.2955 13.7262 26.6842 11.792 26.6842C9.60832 26.6842 7.61179 26.1244 5.80243 25.0048C4.02426 23.8852 2.60485 22.3146 1.54419 20.2931C0.514731 18.2404 0 15.8923 0 13.2488ZM20.4021 13.3421C20.4021 11.756 20.0901 10.4031 19.4662 9.28349C18.8423 8.13277 18 7.26196 16.9393 6.67105C15.8787 6.04904 14.74 5.73804 13.5234 5.73804C12.3068 5.73804 11.1837 6.03349 10.1542 6.6244C9.12478 7.21531 8.2825 8.08612 7.62738 9.23684C7.00347 10.3565 6.69151 11.6938 6.69151 13.2488C6.69151 14.8038 7.00347 16.1722 7.62738 17.3541C8.2825 18.5048 9.12478 19.3911 10.1542 20.0132C11.2149 20.6352 12.338 20.9462 13.5234 20.9462C14.74 20.9462 15.8787 20.6507 16.9393 20.0598C18 19.4378 18.8423 18.567 19.4662 17.4474C20.0901 16.2966 20.4021 14.9282 20.4021 13.3421Z" fill="#394143"/>
</svg>
