<svg width="147" height="28" viewBox="0 0 147 28" fill="none" xmlns="http://www.w3.org/2000/svg">
<path d="M0.891 12.467C0.891 10.955 1.188 9.614 1.782 8.444C2.394 7.274 3.213 6.374 4.239 5.744C5.283 5.114 6.444 4.799 7.722 4.799C8.838 4.799 9.81 5.024 10.638 5.474C11.484 5.924 12.159 6.491 12.663 7.175V5.042H16.47V20H12.663V17.813C12.177 18.515 11.502 19.1 10.638 19.568C9.792 20.018 8.811 20.243 7.695 20.243C6.435 20.243 5.283 19.919 4.239 19.271C3.213 18.623 2.394 17.714 1.782 16.544C1.188 15.356 0.891 13.997 0.891 12.467ZM12.663 12.521C12.663 11.603 12.483 10.82 12.123 10.172C11.763 9.506 11.277 9.002 10.665 8.66C10.053 8.3 9.396 8.12 8.694 8.12C7.992 8.12 7.344 8.291 6.75 8.633C6.156 8.975 5.67 9.479 5.292 10.145C4.932 10.793 4.752 11.567 4.752 12.467C4.752 13.367 4.932 14.159 5.292 14.843C5.67 15.509 6.156 16.022 6.75 16.382C7.362 16.742 8.01 16.922 8.694 16.922C9.396 16.922 10.053 16.751 10.665 16.409C11.277 16.049 11.763 15.545 12.123 14.897C12.483 14.231 12.663 13.439 12.663 12.521ZM91.4834 12.467C91.4834 10.955 91.7804 9.614 92.3744 8.444C92.9864 7.274 93.8054 6.374 94.8314 5.744C95.8754 5.114 97.0364 4.799 98.3144 4.799C99.4304 4.799 100.402 5.024 101.23 5.474C102.076 5.924 102.751 6.491 103.255 7.175V5.042H107.062V20H103.255V17.813C102.769 18.515 102.094 19.1 101.23 19.568C100.384 20.018 99.4034 20.243 98.2874 20.243C97.0274 20.243 95.8754 19.919 94.8314 19.271C93.8054 18.623 92.9864 17.714 92.3744 16.544C91.7804 15.356 91.4834 13.997 91.4834 12.467ZM103.255 12.521C103.255 11.603 103.075 10.82 102.715 10.172C102.355 9.506 101.869 9.002 101.257 8.66C100.645 8.3 99.9884 8.12 99.2864 8.12C98.5844 8.12 97.9364 8.291 97.3424 8.633C96.7484 8.975 96.2624 9.479 95.8844 10.145C95.5244 10.793 95.3444 11.567 95.3444 12.467C95.3444 13.367 95.5244 14.159 95.8844 14.843C96.2624 15.509 96.7484 16.022 97.3424 16.382C97.9544 16.742 98.6024 16.922 99.2864 16.922C99.9884 16.922 100.645 16.751 101.257 16.409C101.869 16.049 102.355 15.545 102.715 14.897C103.075 14.231 103.255 13.439 103.255 12.521ZM113.184 7.229C113.67 6.509 114.336 5.924 115.182 5.474C116.046 5.024 117.027 4.799 118.125 4.799C119.403 4.799 120.555 5.114 121.581 5.744C122.625 6.374 123.444 7.274 124.038 8.444C124.65 9.596 124.956 10.937 124.956 12.467C124.956 13.997 124.65 15.356 124.038 16.544C123.444 17.714 122.625 18.623 121.581 19.271C120.555 19.919 119.403 20.243 118.125 20.243C117.009 20.243 116.028 20.027 115.182 19.595C114.354 19.145 113.688 18.569 113.184 17.867V20H109.404V0.0199997H113.184V7.229ZM121.095 12.467C121.095 11.567 120.906 10.793 120.528 10.145C120.168 9.479 119.682 8.975 119.07 8.633C118.476 8.291 117.828 8.12 117.126 8.12C116.442 8.12 115.794 8.3 115.182 8.66C114.588 9.002 114.102 9.506 113.724 10.172C113.364 10.838 113.184 11.621 113.184 12.521C113.184 13.421 113.364 14.204 113.724 14.87C114.102 15.536 114.588 16.049 115.182 16.409C115.794 16.751 116.442 16.922 117.126 16.922C117.828 16.922 118.476 16.742 119.07 16.382C119.682 16.022 120.168 15.509 120.528 14.843C120.906 14.177 121.095 13.385 121.095 12.467ZM130.133 0.0199997V20H126.353V0.0199997H130.133ZM146.828 5.042L137.567 27.074H133.544L136.784 19.622L130.79 5.042H135.029L138.89 15.491L142.805 5.042H146.828Z" fill="#394143"/>
<path d="M24.6708 4.799C25.7868 4.799 26.7678 5.024 27.6138 5.474C28.4598 5.906 29.1258 6.473 29.6118 7.175V5.042H33.4188V20.108C33.4188 21.494 33.1398 22.727 32.5818 23.807C32.0238 24.905 31.1868 25.769 30.0708 26.399C28.9548 27.047 27.6048 27.371 26.0208 27.371C23.8968 27.371 22.1508 26.876 20.7828 25.886C19.4328 24.896 18.6678 23.546 18.4878 21.836H22.2408C22.4388 22.52 22.8618 23.06 23.5098 23.456C24.1758 23.87 24.9768 24.077 25.9128 24.077C27.0108 24.077 27.9018 23.744 28.5858 23.078C29.2698 22.43 29.6118 21.44 29.6118 20.108V17.786C29.1258 18.488 28.4508 19.073 27.5868 19.541C26.7408 20.009 25.7688 20.243 24.6708 20.243C23.4108 20.243 22.2588 19.919 21.2148 19.271C20.1708 18.623 19.3428 17.714 18.7308 16.544C18.1368 15.356 17.8398 13.997 17.8398 12.467C17.8398 10.955 18.1368 9.614 18.7308 8.444C19.3428 7.274 20.1618 6.374 21.1878 5.744C22.2318 5.114 23.3928 4.799 24.6708 4.799ZM29.6118 12.521C29.6118 11.603 29.4318 10.82 29.0718 10.172C28.7118 9.506 28.2258 9.002 27.6138 8.66C27.0018 8.3 26.3448 8.12 25.6428 8.12C24.9408 8.12 24.2928 8.291 23.6988 8.633C23.1048 8.975 22.6188 9.479 22.2408 10.145C21.8808 10.793 21.7008 11.567 21.7008 12.467C21.7008 13.367 21.8808 14.159 22.2408 14.843C22.6188 15.509 23.1048 16.022 23.6988 16.382C24.3108 16.742 24.9588 16.922 25.6428 16.922C26.3448 16.922 27.0018 16.751 27.6138 16.409C28.2258 16.049 28.7118 15.545 29.0718 14.897C29.4318 14.231 29.6118 13.439 29.6118 12.521ZM39.5407 7.364C40.0267 6.572 40.6567 5.951 41.4307 5.501C42.2227 5.051 43.1227 4.826 44.1307 4.826V8.795H43.1317C41.9437 8.795 41.0437 9.074 40.4317 9.632C39.8377 10.19 39.5407 11.162 39.5407 12.548V20H35.7607V5.042H39.5407V7.364ZM59.2317 12.197C59.2317 12.737 59.1957 13.223 59.1237 13.655H48.1887C48.2787 14.735 48.6567 15.581 49.3227 16.193C49.9887 16.805 50.8077 17.111 51.7797 17.111C53.1837 17.111 54.1827 16.508 54.7767 15.302H58.8537C58.4217 16.742 57.5937 17.93 56.3697 18.866C55.1457 19.784 53.6427 20.243 51.8607 20.243C50.4207 20.243 49.1247 19.928 47.9727 19.298C46.8387 18.65 45.9477 17.741 45.2997 16.571C44.6697 15.401 44.3547 14.051 44.3547 12.521C44.3547 10.973 44.6697 9.614 45.2997 8.444C45.9297 7.274 46.8117 6.374 47.9457 5.744C49.0797 5.114 50.3847 4.799 51.8607 4.799C53.2827 4.799 54.5517 5.105 55.6677 5.717C56.8017 6.329 57.6747 7.202 58.2867 8.336C58.9167 9.452 59.2317 10.739 59.2317 12.197ZM55.3167 11.117C55.2987 10.145 54.9477 9.371 54.2637 8.795C53.5797 8.201 52.7427 7.904 51.7527 7.904C50.8167 7.904 50.0247 8.192 49.3767 8.768C48.7467 9.326 48.3597 10.109 48.2157 11.117H55.3167ZM74.5457 12.197C74.5457 12.737 74.5097 13.223 74.4377 13.655H63.5027C63.5927 14.735 63.9707 15.581 64.6367 16.193C65.3027 16.805 66.1217 17.111 67.0937 17.111C68.4977 17.111 69.4967 16.508 70.0907 15.302H74.1677C73.7357 16.742 72.9077 17.93 71.6837 18.866C70.4597 19.784 68.9567 20.243 67.1747 20.243C65.7347 20.243 64.4387 19.928 63.2867 19.298C62.1527 18.65 61.2617 17.741 60.6137 16.571C59.9837 15.401 59.6687 14.051 59.6687 12.521C59.6687 10.973 59.9837 9.614 60.6137 8.444C61.2437 7.274 62.1257 6.374 63.2597 5.744C64.3937 5.114 65.6987 4.799 67.1747 4.799C68.5967 4.799 69.8657 5.105 70.9817 5.717C72.1157 6.329 72.9887 7.202 73.6007 8.336C74.2307 9.452 74.5457 10.739 74.5457 12.197ZM70.6307 11.117C70.6127 10.145 70.2617 9.371 69.5777 8.795C68.8937 8.201 68.0567 7.904 67.0667 7.904C66.1307 7.904 65.3387 8.192 64.6907 8.768C64.0607 9.326 63.6737 10.109 63.5297 11.117H70.6307ZM84.2438 4.826C86.0258 4.826 87.4658 5.393 88.5638 6.527C89.6618 7.643 90.2108 9.209 90.2108 11.225V20H86.4308V11.738C86.4308 10.55 86.1338 9.641 85.5398 9.011C84.9458 8.363 84.1358 8.039 83.1098 8.039C82.0658 8.039 81.2378 8.363 80.6258 9.011C80.0318 9.641 79.7348 10.55 79.7348 11.738V20H75.9548V5.042H79.7348V6.905C80.2388 6.257 80.8778 5.753 81.6518 5.393C82.4438 5.015 83.3078 4.826 84.2438 4.826Z" fill="#00BC62"/>
</svg>
